# xmcd
#
# Track frame offsets:
#	150
#	19836
#	37763
#	53040
#	69570
#	89215
#	109396
#	126311
#	150787
#	167220
#	185232
#	203007
#
# Disc length: 2950 seconds
#
# Revision: 1
# Processed by: cddbd v1.5.1PL2 Copyright (c) Steve Scherf et al.
# Submitted via: audiograbber 1.83.01
#
DISCID=a40b840c
DTITLE=Jarrod Birmingham - No Apologies
DYEAR=2001
DGENRE=Country
TTITLE0=If you don't like me
TTITLE1=Like my daddy did
TTITLE2=Where'd you go country music
TTITLE3=Restless Kind
TTITLE4=Best I can
TTITLE5=Walk Away
TTITLE6=Burnin' my candle
TTITLE7=Midnight train
TTITLE8=Rollin' thunder
TTITLE9=I don't live in Dallas
TTITLE10=Sad country song
TTITLE11=Holdin' on
EXTD=
EXTT0=
EXTT1=
EXTT2=
EXTT3=
EXTT4=
EXTT5=
EXTT6=
EXTT7=
EXTT8=
EXTT9=
EXTT10=
EXTT11=
PLAYORDER=
